<svg width="149" height="43" viewBox="0 0 149 43" fill="none" xmlns="http://www.w3.org/2000/svg">
<path d="M148.08 37.8251C148.08 40.1036 146.196 41.9493 143.866 41.9493H5.94461C3.61531 41.9493 1.72461 40.1036 1.72461 37.8251V4.93663C1.72461 2.65921 3.61531 0.807129 5.94461 0.807129H143.865C146.196 0.807129 148.079 2.65921 148.079 4.93663L148.08 37.8251Z" fill="white"/>
<path d="M143.421 0.85651C145.959 0.85651 148.024 2.87003 148.024 5.34451V37.4112C148.024 39.8856 145.959 41.8992 143.421 41.8992H6.38383C3.8459 41.8992 1.78075 39.8856 1.78075 37.4112V5.34451C1.78075 2.87003 3.8459 0.85651 6.38383 0.85651H143.421ZM143.421 6.48499e-05H6.38383C3.37038 6.48499e-05 0.902344 2.4064 0.902344 5.34451V37.4112C0.902344 40.3493 3.37038 42.7556 6.38383 42.7556H143.421C146.434 42.7556 148.902 40.3493 148.902 37.4112V5.34451C148.902 2.4064 146.434 6.48499e-05 143.421 6.48499e-05Z" fill="#A6A6A6"/>
<path d="M33.932 21.1457C33.9002 17.7006 36.8251 16.0246 36.9589 15.9466C35.3024 13.5918 32.7349 13.2701 31.8326 13.2444C29.6762 13.0232 27.5845 14.5025 26.486 14.5025C25.3656 14.5025 23.674 13.2658 21.8508 13.3022C19.5048 13.3374 17.31 14.6618 16.1062 16.7183C13.622 20.9116 15.4748 27.0737 17.8548 30.4632C19.0454 32.1231 20.4366 33.9766 22.2576 33.9114C24.039 33.8398 24.7045 32.804 26.8543 32.804C28.9844 32.804 29.6093 33.9114 31.4664 33.8697C33.3784 33.8398 34.5821 32.2022 35.731 30.5273C37.1069 28.6247 37.6594 26.7509 37.6813 26.6547C37.6364 26.6397 33.9682 25.2748 33.932 21.1457Z" fill="black"/>
<path d="M30.4239 11.0147C31.382 9.84643 32.0376 8.257 31.8556 6.64404C30.4688 6.7039 28.7345 7.57932 27.7357 8.72196C26.8521 9.72886 26.0628 11.3792 26.2667 12.9312C27.8245 13.0445 29.424 12.1649 30.4239 11.0147Z" fill="black"/>
<path d="M54.6742 10.7C54.6742 11.9581 54.2872 12.9051 53.5143 13.5411C52.7985 14.1279 51.7811 14.4219 50.4633 14.4219C49.8099 14.4219 49.2508 14.3941 48.7827 14.3385V7.46446C49.3934 7.36826 50.0511 7.31909 50.7615 7.31909C52.0168 7.31909 52.9629 7.58524 53.6009 8.11755C54.3157 8.71934 54.6742 9.57979 54.6742 10.7ZM53.4628 10.731C53.4628 9.91542 53.2414 9.29012 52.7985 8.85402C52.3555 8.41898 51.7087 8.20093 50.8569 8.20093C50.4951 8.20093 50.1871 8.22444 49.9316 8.27361V13.4994C50.0731 13.5208 50.3318 13.5304 50.7078 13.5304C51.587 13.5304 52.2657 13.292 52.7436 12.8153C53.2216 12.3386 53.4628 11.6438 53.4628 10.731Z" fill="black"/>
<path d="M61.0976 11.7986C61.0976 12.5735 60.8707 13.2084 60.4168 13.7065C59.941 14.2185 59.3107 14.474 58.5235 14.474C57.7649 14.474 57.1608 14.2292 56.7102 13.7375C56.2608 13.2469 56.036 12.628 56.036 11.8819C56.036 11.1016 56.2673 10.4614 56.7322 9.96435C57.197 9.46731 57.8219 9.21826 58.609 9.21826C59.3677 9.21826 59.9772 9.46304 60.4387 9.95366C60.8773 10.4304 61.0976 11.0461 61.0976 11.7986ZM59.9059 11.8349C59.9059 11.3699 59.8029 10.9712 59.5979 10.6388C59.3567 10.2369 59.0136 10.036 58.5674 10.036C58.1058 10.036 57.755 10.2369 57.5138 10.6388C57.3077 10.9712 57.2058 11.3763 57.2058 11.8552C57.2058 12.3202 57.3088 12.7189 57.5138 13.0513C57.7627 13.4532 58.1091 13.6541 58.5564 13.6541C58.9949 13.6541 59.3392 13.45 59.5869 13.0406C59.7996 12.7018 59.9059 12.2999 59.9059 11.8349Z" fill="black"/>
<path d="M69.7096 9.32104L68.0926 14.3598H67.0401L66.3703 12.1718C66.2004 11.6256 66.0622 11.0826 65.9548 10.5439H65.934C65.8342 11.0975 65.6961 11.6395 65.5185 12.1718L64.807 14.3598H63.7425L62.2219 9.32104H63.4026L63.987 11.7164C64.1284 12.2829 64.2446 12.8227 64.3378 13.3337H64.3586C64.4441 12.9125 64.5855 12.3759 64.7851 11.7271L65.5185 9.32211H66.4547L67.1574 11.6758C67.3274 12.2498 67.4655 12.8024 67.5718 13.3347H67.6036C67.6815 12.8163 67.7988 12.2637 67.9545 11.6758L68.5815 9.32211H69.7096V9.32104Z" fill="black"/>
<path d="M75.6657 14.3584H74.5168V11.4724C74.5168 10.5831 74.1704 10.1385 73.4754 10.1385C73.1344 10.1385 72.8592 10.2603 72.6455 10.5051C72.4339 10.7499 72.3264 11.0385 72.3264 11.3687V14.3574H71.1775V10.7595C71.1775 10.317 71.1633 9.83703 71.1359 9.31755H72.1455L72.1993 10.1053H72.2311C72.3648 9.86055 72.5643 9.65853 72.8263 9.49712C73.1377 9.309 73.4863 9.21387 73.8678 9.21387C74.3502 9.21387 74.7514 9.36565 75.0705 9.67028C75.4673 10.0433 75.6657 10.6002 75.6657 11.3399V14.3584Z" fill="black"/>
<path d="M78.8346 14.3593H77.6868V7.00854H78.8346V14.3593Z" fill="black"/>
<path d="M85.5983 11.7986C85.5983 12.5735 85.3714 13.2084 84.9175 13.7065C84.4418 14.2185 83.8103 14.474 83.0242 14.474C82.2645 14.474 81.6604 14.2292 81.211 13.7375C80.7615 13.2469 80.5367 12.628 80.5367 11.8819C80.5367 11.1016 80.7681 10.4614 81.2329 9.96435C81.6977 9.46731 82.3226 9.21826 83.1087 9.21826C83.8684 9.21826 84.4768 9.46304 84.9395 9.95366C85.378 10.4304 85.5983 11.0461 85.5983 11.7986ZM84.4056 11.8349C84.4056 11.3699 84.3025 10.9712 84.0975 10.6388C83.8574 10.2369 83.5132 10.036 83.0681 10.036C82.6055 10.036 82.2546 10.2369 82.0146 10.6388C81.8084 10.9712 81.7065 11.3763 81.7065 11.8552C81.7065 12.3202 81.8095 12.7189 82.0146 13.0513C82.2634 13.4532 82.6098 13.6541 83.0571 13.6541C83.4957 13.6541 83.8388 13.45 84.0865 13.0406C84.3003 12.7018 84.4056 12.2999 84.4056 11.8349Z" fill="black"/>
<path d="M91.1592 14.3596H90.1276L90.042 13.7792H90.0102C89.6572 14.242 89.154 14.474 88.5006 14.474C88.0128 14.474 87.6181 14.3211 87.321 14.0176C87.0514 13.7418 86.9165 13.3987 86.9165 12.9914C86.9165 12.3758 87.1796 11.9065 87.7091 11.5816C88.2375 11.2566 88.9808 11.0974 89.9379 11.1048V11.0108C89.9379 10.347 89.5805 10.0157 88.8646 10.0157C88.3548 10.0157 87.9054 10.1407 87.5173 10.3887L87.2838 9.6533C87.7639 9.36363 88.357 9.21826 89.0565 9.21826C90.4071 9.21826 91.0846 9.91304 91.0846 11.3026V13.1582C91.0846 13.6616 91.1098 14.0625 91.1592 14.3596ZM89.9664 12.628V11.8509C88.6991 11.8296 88.0654 12.1684 88.0654 12.8664C88.0654 13.1293 88.1378 13.326 88.2858 13.4575C88.4338 13.5889 88.6223 13.6541 88.8471 13.6541C89.0992 13.6541 89.3349 13.5761 89.5498 13.4211C89.7658 13.2651 89.8984 13.0673 89.9478 12.8247C89.9598 12.7702 89.9664 12.7039 89.9664 12.628Z" fill="black"/>
<path d="M97.6878 14.3593H96.6683L96.6146 13.5501H96.5828C96.2572 14.1658 95.7024 14.4737 94.923 14.4737C94.3003 14.4737 93.7817 14.2353 93.3706 13.7586C92.9595 13.2819 92.7545 12.663 92.7545 11.903C92.7545 11.0874 92.9771 10.4269 93.4244 9.92234C93.8574 9.45202 94.388 9.21687 95.0195 9.21687C95.7134 9.21687 96.1991 9.44454 96.4753 9.90096H96.4973V7.00854H97.6473V13.0018C97.6473 13.4924 97.6604 13.9446 97.6878 14.3593ZM96.4973 12.2343V11.3942C96.4973 11.2488 96.4863 11.1312 96.4655 11.0415C96.4008 10.7721 96.2616 10.5455 96.05 10.3627C95.8362 10.1799 95.5786 10.088 95.2815 10.088C94.8528 10.088 94.5174 10.2537 94.2707 10.5861C94.0262 10.9185 93.9023 11.3429 93.9023 11.8613C93.9023 12.3594 94.0196 12.7634 94.2553 13.0745C94.5042 13.4058 94.8397 13.5715 95.2595 13.5715C95.6367 13.5715 95.9382 13.4336 96.1673 13.1568C96.3887 12.9013 96.4973 12.5935 96.4973 12.2343Z" fill="black"/>
<path d="M107.514 11.7986C107.514 12.5735 107.287 13.2084 106.833 13.7065C106.357 14.2185 105.728 14.474 104.94 14.474C104.182 14.474 103.578 14.2292 103.126 13.7375C102.677 13.2469 102.452 12.628 102.452 11.8819C102.452 11.1016 102.683 10.4614 103.148 9.96435C103.613 9.46731 104.238 9.21826 105.026 9.21826C105.784 9.21826 106.394 9.46304 106.855 9.95366C107.293 10.4304 107.514 11.0461 107.514 11.7986ZM106.323 11.8349C106.323 11.3699 106.22 10.9712 106.015 10.6388C105.773 10.2369 105.431 10.036 104.983 10.036C104.523 10.036 104.172 10.2369 103.93 10.6388C103.724 10.9712 103.622 11.3763 103.622 11.8552C103.622 12.3202 103.725 12.7189 103.93 13.0513C104.179 13.4532 104.525 13.6541 104.972 13.6541C105.411 13.6541 105.756 13.45 106.004 13.0406C106.216 12.7018 106.323 12.2999 106.323 11.8349Z" fill="black"/>
<path d="M113.691 14.3584H112.543V11.4724C112.543 10.5831 112.197 10.1385 111.501 10.1385C111.16 10.1385 110.885 10.2603 110.672 10.5051C110.459 10.7499 110.353 11.0385 110.353 11.3687V14.3574H109.203V10.7595C109.203 10.317 109.19 9.83703 109.162 9.31755H110.171L110.225 10.1053H110.257C110.391 9.86055 110.591 9.65853 110.852 9.49712C111.164 9.309 111.512 9.21387 111.894 9.21387C112.376 9.21387 112.777 9.36565 113.096 9.67028C113.494 10.0433 113.691 10.6002 113.691 11.3399V14.3584Z" fill="black"/>
<path d="M121.423 10.1604H120.158V12.6081C120.158 13.2302 120.383 13.5413 120.828 13.5413C121.034 13.5413 121.205 13.5242 121.34 13.4889L121.369 14.3386C121.142 14.422 120.844 14.4637 120.477 14.4637C120.023 14.4637 119.67 14.329 119.415 14.0597C119.158 13.7903 119.031 13.3371 119.031 12.7011V10.1604H118.276V9.32128H119.031V8.39776L120.157 8.06641V9.32021H121.422V10.1604H121.423Z" fill="black"/>
<path d="M127.505 14.3593H126.355V11.4947C126.355 10.5915 126.009 10.1393 125.315 10.1393C124.782 10.1393 124.418 10.4012 124.219 10.925C124.185 11.035 124.165 11.1697 124.165 11.3279V14.3582H123.017V7.00854H124.165V10.0453H124.187C124.549 9.49264 125.067 9.21687 125.739 9.21687C126.215 9.21687 126.609 9.36865 126.921 9.67328C127.31 10.0527 127.505 10.6171 127.505 11.3632V14.3593Z" fill="black"/>
<path d="M133.78 11.6008C133.78 11.8017 133.764 11.9706 133.737 12.1085H130.291C130.306 12.6066 130.471 12.986 130.79 13.249C131.082 13.4841 131.458 13.6017 131.918 13.6017C132.428 13.6017 132.893 13.5226 133.311 13.3634L133.491 14.1415C133.001 14.3489 132.424 14.4526 131.757 14.4526C130.957 14.4526 130.326 14.2227 129.87 13.7631C129.412 13.3035 129.185 12.6868 129.185 11.9129C129.185 11.1529 129.397 10.5201 129.823 10.0156C130.268 9.47688 130.87 9.20752 131.63 9.20752C132.373 9.20752 132.938 9.47688 133.319 10.0156C133.627 10.4432 133.78 10.9723 133.78 11.6008ZM132.683 11.3111C132.692 10.9787 132.616 10.6922 132.461 10.4506C132.261 10.1396 131.957 9.98353 131.546 9.98353C131.171 9.98353 130.866 10.1353 130.632 10.4399C130.441 10.6826 130.328 10.9723 130.291 11.3111H132.683Z" fill="black"/>
<path d="M59.7152 33.672H57.2255L55.8617 29.4938H51.1213L49.8222 33.672H47.3983L52.0948 19.4473H54.9956L59.7152 33.672ZM55.4506 27.7408L54.2173 24.0264C54.0868 23.6469 53.8423 22.7533 53.4817 21.3467H53.4378C53.2942 21.9517 53.0629 22.8453 52.7449 24.0264L51.5335 27.7408H55.4506Z" fill="black"/>
<path d="M71.7929 28.418C71.7929 30.1625 71.3094 31.5413 70.3425 32.5536C69.4764 33.4547 68.4009 33.9047 67.1172 33.9047C65.7314 33.9047 64.736 33.4194 64.1297 32.4488H64.0859V37.8521H61.7486V26.7923C61.7486 25.6956 61.719 24.57 61.662 23.4156H63.7175L63.848 25.0414H63.8919C64.6713 23.8165 65.8542 23.2051 67.4417 23.2051C68.6827 23.2051 69.7187 23.6829 70.5475 24.6395C71.3785 25.5973 71.7929 26.8564 71.7929 28.418ZM69.4117 28.5014C69.4117 27.5031 69.1815 26.68 68.7188 26.0323C68.2135 25.3568 67.5348 25.019 66.6841 25.019C66.1075 25.019 65.5834 25.2071 65.1153 25.578C64.6461 25.9521 64.3391 26.4406 64.1955 27.0456C64.1232 27.3278 64.087 27.5587 64.087 27.7404V29.4506C64.087 30.1967 64.3216 30.8263 64.7908 31.3404C65.26 31.8545 65.8696 32.1111 66.6194 32.1111C67.4998 32.1111 68.1849 31.7797 68.675 31.1191C69.1661 30.4575 69.4117 29.5853 69.4117 28.5014Z" fill="black"/>
<path d="M83.8927 28.418C83.8927 30.1625 83.4093 31.5413 82.4412 32.5536C81.5762 33.4547 80.5008 33.9047 79.217 33.9047C77.8313 33.9047 76.8359 33.4194 76.2307 32.4488H76.1868V37.8521H73.8495V26.7923C73.8495 25.6956 73.8199 24.57 73.7629 23.4156H75.8185L75.949 25.0414H75.9928C76.7712 23.8165 77.9541 23.2051 79.5426 23.2051C80.7825 23.2051 81.8185 23.6829 82.6495 24.6395C83.4772 25.5973 83.8927 26.8564 83.8927 28.418ZM81.5116 28.5014C81.5116 27.5031 81.2802 26.68 80.8176 26.0323C80.3122 25.3568 79.6358 25.019 78.784 25.019C78.2062 25.019 77.6833 25.2071 77.2141 25.578C76.7449 25.9521 76.439 26.4406 76.2954 27.0456C76.2241 27.3278 76.1868 27.5587 76.1868 27.7404V29.4506C76.1868 30.1967 76.4215 30.8263 76.8885 31.3404C77.3577 31.8535 77.9672 32.1111 78.7193 32.1111C79.5996 32.1111 80.2848 31.7797 80.7749 31.1191C81.266 30.4575 81.5116 29.5853 81.5116 28.5014Z" fill="black"/>
<path d="M97.4213 29.6836C97.4213 30.8936 96.9904 31.878 96.1254 32.638C95.175 33.4686 93.8517 33.8833 92.1514 33.8833C90.5815 33.8833 89.3229 33.5883 88.3702 32.9972L88.9118 31.0978C89.9379 31.7027 91.0638 32.0063 92.2906 32.0063C93.1709 32.0063 93.8561 31.8118 94.3483 31.4248C94.8384 31.0379 95.0829 30.5184 95.0829 29.8707C95.0829 29.2935 94.8811 28.8071 94.4766 28.4127C94.0743 28.0183 93.4022 27.6517 92.4638 27.3128C89.9094 26.384 88.6334 25.0233 88.6334 23.2339C88.6334 22.0646 89.0806 21.1058 89.9763 20.3597C90.8687 19.6125 92.0593 19.2395 93.548 19.2395C94.8757 19.2395 95.9785 19.465 96.8589 19.915L96.2745 21.7728C95.4523 21.3367 94.5227 21.1186 93.4823 21.1186C92.66 21.1186 92.0176 21.3164 91.5572 21.7097C91.168 22.0614 90.9728 22.49 90.9728 22.9977C90.9728 23.56 91.1954 24.0249 91.6427 24.3905C92.0319 24.7282 92.739 25.0938 93.7651 25.4882C95.0204 25.981 95.9424 26.5571 96.5355 27.2177C97.1264 27.8761 97.4213 28.7002 97.4213 29.6836Z" fill="black"/>
<path d="M105.149 25.1263H102.573V30.1062C102.573 31.3729 103.027 32.0057 103.936 32.0057C104.354 32.0057 104.701 31.9704 104.975 31.8998L105.039 33.6304C104.579 33.7982 103.973 33.8826 103.222 33.8826C102.299 33.8826 101.577 33.6079 101.056 33.0596C100.538 32.5102 100.277 31.5888 100.277 30.2944V25.1241H98.7422V23.4139H100.277V21.5359L102.573 20.8604V23.4139H105.149V25.1263Z" fill="black"/>
<path d="M116.773 28.4606C116.773 30.0372 116.31 31.3317 115.387 32.3439C114.419 33.3861 113.134 33.9055 111.533 33.9055C109.989 33.9055 108.76 33.4064 107.844 32.408C106.927 31.4097 106.469 30.1495 106.469 28.6306C106.469 27.0411 106.94 25.7392 107.886 24.727C108.83 23.7137 110.104 23.207 111.706 23.207C113.249 23.207 114.491 23.7062 115.429 24.7056C116.326 25.6751 116.773 26.9268 116.773 28.4606ZM114.348 28.5344C114.348 27.5884 114.141 26.7771 113.721 26.1005C113.231 25.2817 112.53 24.8734 111.622 24.8734C110.683 24.8734 109.969 25.2828 109.479 26.1005C109.059 26.7782 108.852 27.6023 108.852 28.5771C108.852 29.5231 109.059 30.3344 109.479 31.0099C109.985 31.8287 110.691 32.237 111.602 32.237C112.494 32.237 113.195 31.8201 113.7 30.9885C114.131 30.2991 114.348 29.4793 114.348 28.5344Z" fill="black"/>
<path d="M124.371 25.4198C124.139 25.3781 123.893 25.3568 123.634 25.3568C122.812 25.3568 122.176 25.6592 121.729 26.2653C121.339 26.7998 121.144 27.4753 121.144 28.2909V33.6727H118.808L118.83 26.6458C118.83 25.4636 118.8 24.3873 118.742 23.4167H120.778L120.864 25.3792H120.928C121.175 24.7047 121.564 24.1617 122.097 23.7545C122.618 23.3879 123.18 23.2051 123.786 23.2051C124.002 23.2051 124.197 23.22 124.371 23.2468V25.4198Z" fill="black"/>
<path d="M134.823 28.0589C134.823 28.4672 134.796 28.8114 134.738 29.0925H127.726C127.753 30.1058 128.092 30.8807 128.743 31.4152C129.334 31.893 130.098 32.1324 131.037 32.1324C132.075 32.1324 133.022 31.971 133.874 31.6471L134.24 33.2291C133.245 33.6523 132.069 33.8629 130.713 33.8629C129.082 33.8629 127.802 33.3947 126.87 32.4595C125.94 31.5242 125.474 30.2682 125.474 28.6927C125.474 27.146 125.907 25.858 126.774 24.8308C127.682 23.7341 128.909 23.1858 130.452 23.1858C131.969 23.1858 133.116 23.7341 133.896 24.8308C134.513 25.702 134.823 26.7794 134.823 28.0589ZM132.595 27.4678C132.61 26.7922 132.458 26.2086 132.141 25.7158C131.736 25.082 131.115 24.7656 130.278 24.7656C129.514 24.7656 128.892 25.0745 128.418 25.6945C128.028 26.1872 127.797 26.7783 127.726 27.4667H132.595V27.4678Z" fill="black"/>
</svg>