<svg width="58" height="61" viewBox="0 0 58 61" fill="none" xmlns="http://www.w3.org/2000/svg">
<path fill-rule="evenodd" clip-rule="evenodd" d="M39.5 30.5C39.5 36.4802 34.799 41.3281 29 41.3281C23.201 41.3281 18.5 36.4802 18.5 30.5C18.5 24.5198 23.201 19.6719 29 19.6719C34.799 19.6719 39.5 24.5198 39.5 30.5Z" stroke="#F4001C" stroke-width="1.5" stroke-linecap="round" stroke-linejoin="round"/>
<path d="M57 31.25C57.4142 31.25 57.75 30.9142 57.75 30.5C57.75 30.0858 57.4142 29.75 57 29.75V31.25ZM50 29.75C49.5858 29.75 49.25 30.0858 49.25 30.5C49.25 30.9142 49.5858 31.25 50 31.25V29.75ZM8 31.25C8.41421 31.25 8.75 30.9142 8.75 30.5C8.75 30.0858 8.41421 29.75 8 29.75V31.25ZM1 29.75C0.585786 29.75 0.25 30.0858 0.25 30.5C0.25 30.9142 0.585786 31.25 1 31.25V29.75ZM29.75 1.625C29.75 1.21079 29.4142 0.875 29 0.875C28.5858 0.875 28.25 1.21079 28.25 1.625H29.75ZM28.25 8.84375C28.25 9.25796 28.5858 9.59375 29 9.59375C29.4142 9.59375 29.75 9.25796 29.75 8.84375H28.25ZM29.75 52.1562C29.75 51.742 29.4142 51.4062 29 51.4062C28.5858 51.4062 28.25 51.742 28.25 52.1562H29.75ZM28.25 59.375C28.25 59.7892 28.5858 60.125 29 60.125C29.4142 60.125 29.75 59.7892 29.75 59.375H28.25ZM49.3384 10.6034C49.6268 10.306 49.6195 9.83118 49.3221 9.54282C49.0247 9.25447 48.5499 9.26178 48.2616 9.55914L49.3384 10.6034ZM43.3096 14.6659C43.0212 14.9633 43.0285 15.4381 43.3259 15.7264C43.6233 16.0148 44.0981 16.0075 44.3864 15.7101L43.3096 14.6659ZM14.6904 46.3341C14.9788 46.0367 14.9715 45.5619 14.6741 45.2736C14.3767 44.9852 13.9019 44.9925 13.6136 45.2899L14.6904 46.3341ZM8.66158 50.3966C8.37322 50.694 8.38053 51.1688 8.67789 51.4572C8.97526 51.7455 9.45007 51.7382 9.73843 51.4409L8.66158 50.3966ZM9.73843 9.55914C9.45007 9.26178 8.97526 9.25447 8.67789 9.54282C8.38053 9.83118 8.37322 10.306 8.66158 10.6034L9.73843 9.55914ZM13.6136 15.7101C13.9019 16.0075 14.3767 16.0148 14.6741 15.7264C14.9715 15.4381 14.9788 14.9633 14.6904 14.6659L13.6136 15.7101ZM44.3904 45.294C44.1021 44.9967 43.6273 44.9893 43.3299 45.2777C43.0325 45.5661 43.0252 46.0409 43.3136 46.3382L44.3904 45.294ZM48.2616 51.4409C48.5499 51.7382 49.0247 51.7455 49.3221 51.4572C49.6195 51.1688 49.6268 50.694 49.3384 50.3966L48.2616 51.4409ZM57 29.75H50V31.25H57V29.75ZM8 29.75H1V31.25H8V29.75ZM28.25 1.625V8.84375H29.75V1.625H28.25ZM28.25 52.1562V59.375H29.75V52.1562H28.25ZM48.2616 9.55914L43.3096 14.6659L44.3864 15.7101L49.3384 10.6034L48.2616 9.55914ZM13.6136 45.2899L8.66158 50.3966L9.73843 51.4409L14.6904 46.3341L13.6136 45.2899ZM8.66158 10.6034L13.6136 15.7101L14.6904 14.6659L9.73843 9.55914L8.66158 10.6034ZM43.3136 46.3382L48.2616 51.4409L49.3384 50.3966L44.3904 45.294L43.3136 46.3382Z" fill="#F4001C"/>
</svg>