<svg width="148" height="43" viewBox="0 0 148 43" fill="none" xmlns="http://www.w3.org/2000/svg">
<path d="M142.458 42.7556H6.34679C3.3537 42.7556 0.902344 40.3918 0.902344 37.5056V6.00562C0.902344 3.11943 3.3537 0.755617 6.34679 0.755617H142.458C145.451 0.755617 147.902 3.11943 147.902 6.00562V37.5056C147.902 40.3918 145.451 42.7556 142.458 42.7556Z" fill="white"/>
<path d="M142.458 1.59693C144.979 1.59693 147.03 3.57487 147.03 6.00562V37.5056C147.03 39.9364 144.979 41.9143 142.458 41.9143H6.34679C3.82601 41.9143 1.77482 39.9364 1.77482 37.5056V6.00562C1.77482 3.57487 3.82601 1.59693 6.34679 1.59693H142.458ZM142.458 0.755617H6.34679C3.3537 0.755617 0.902344 3.11943 0.902344 6.00562V37.5056C0.902344 40.3918 3.3537 42.7556 6.34679 42.7556H142.458C145.451 42.7556 147.902 40.3918 147.902 37.5056V6.00562C147.902 3.11943 145.451 0.755617 142.458 0.755617Z" fill="#A6A6A6"/>
<path d="M11.4482 8.67126C11.1283 8.99414 10.9432 9.49683 10.9432 10.1478V33.3686C10.9432 34.0196 11.1283 34.5223 11.4482 34.8451L11.5272 34.916L25.0212 21.9091V21.602L11.5272 8.59514L11.4482 8.67126Z" fill="black"/>
<path d="M31.1476 26.2471L26.6545 21.9093V21.6021L31.153 17.2643L31.2537 17.3208L36.5811 20.2437C38.1015 21.0732 38.1015 22.4382 36.5811 23.2729L31.2537 26.1906L31.1476 26.2471V26.2471Z" fill="black"/>
<path d="M30.4371 26.9983L25.8379 22.5634L12.2649 35.653C12.7699 36.1648 13.5933 36.2265 14.5298 35.7146L30.4371 26.9983" fill="black"/>
<path d="M30.4371 16.5131L14.5298 7.79675C13.5933 7.29013 12.7699 7.35181 12.2649 7.86369L25.8379 20.948L30.4371 16.5131Z" fill="black"/>
<path d="M52.5348 11.5116C52.5348 12.3883 52.2626 13.0905 51.7263 13.6142C51.1097 14.235 50.3066 14.5474 49.3226 14.5474C48.382 14.5474 47.579 14.2297 46.9202 13.6037C46.26 12.9684 45.9307 12.1888 45.9307 11.2556C45.9307 10.3224 46.26 9.54281 46.9202 8.91281C47.579 8.28149 48.382 7.96387 49.3226 7.96387C49.7908 7.96387 50.2372 8.05705 50.6632 8.2303C51.0879 8.40487 51.4336 8.64112 51.6841 8.93249L51.1151 9.48637C50.6782 8.98893 50.0834 8.74349 49.3226 8.74349C48.6366 8.74349 48.0417 8.97449 47.5368 9.44043C47.0372 9.90768 46.7868 10.5127 46.7868 11.2556C46.7868 11.9985 47.0372 12.6088 47.5368 13.0761C48.0417 13.5367 48.6366 13.773 49.3226 13.773C50.0507 13.773 50.6632 13.5367 51.1464 13.0708C51.4649 12.7624 51.646 12.3371 51.6936 11.7937H49.3226V11.0351H52.4858C52.5239 11.1992 52.5348 11.358 52.5348 11.5116V11.5116Z" fill="black" stroke="black" stroke-width="0.16" stroke-miterlimit="10"/>
<path d="M57.5532 8.88122H54.5819V10.8762H57.2606V11.6348H54.5819V13.6298H57.5532V14.4029H53.7407V8.10815H57.5532V8.88122Z" fill="black" stroke="black" stroke-width="0.16" stroke-miterlimit="10"/>
<path d="M61.0947 14.4029H60.2536V8.88122H58.431V8.10815H62.9186V8.88122H61.0947V14.4029V14.4029Z" fill="black" stroke="black" stroke-width="0.16" stroke-miterlimit="10"/>
<path d="M66.1664 14.4029V8.10815H67.0062V14.4029H66.1664Z" fill="black" stroke="black" stroke-width="0.16" stroke-miterlimit="10"/>
<path d="M70.7287 14.4029H69.8944V8.88122H68.0651V8.10815H72.5581V8.88122H70.7287V14.4029Z" fill="black" stroke="black" stroke-width="0.16" stroke-miterlimit="10"/>
<path d="M81.0541 13.5932C80.4103 14.2297 79.6127 14.5474 78.6612 14.5474C77.7044 14.5474 76.9068 14.2297 76.263 13.5932C75.6205 12.9579 75.3007 12.1783 75.3007 11.2556C75.3007 10.3329 75.6205 9.55331 76.263 8.91806C76.9068 8.28149 77.7044 7.96387 78.6612 7.96387C79.6072 7.96387 80.4048 8.28149 81.0486 8.9233C81.6965 9.5638 82.0164 10.3382 82.0164 11.2556C82.0164 12.1783 81.6965 12.9579 81.0541 13.5932ZM76.885 13.0656C77.3696 13.5367 77.9589 13.773 78.6612 13.773C79.3581 13.773 79.9529 13.5367 80.4321 13.0656C80.9152 12.5944 81.1602 11.9893 81.1602 11.2556C81.1602 10.5219 80.9152 9.91687 80.4321 9.44568C79.9529 8.97449 79.3581 8.73824 78.6612 8.73824C77.9589 8.73824 77.3696 8.97449 76.885 9.44568C76.4018 9.91687 76.1568 10.5219 76.1568 11.2556C76.1568 11.9893 76.4018 12.5944 76.885 13.0656V13.0656Z" fill="black" stroke="black" stroke-width="0.16" stroke-miterlimit="10"/>
<path d="M83.1965 14.4029V8.10815H84.2174L87.3915 13.0038H87.4282L87.3915 11.7937V8.10815H88.2313V14.4029H87.3547L84.0309 9.26578H83.9941L84.0309 10.4812V14.4029H83.1965V14.4029Z" fill="black" stroke="black" stroke-width="0.16" stroke-miterlimit="10"/>
<path d="M75.0938 23.5959C72.5362 23.5959 70.4469 25.4727 70.4469 28.0623C70.4469 30.6309 72.5362 32.5274 75.0938 32.5274C77.6567 32.5274 79.746 30.6309 79.746 28.0623C79.746 25.4727 77.6567 23.5959 75.0938 23.5959ZM75.0938 30.7687C73.6905 30.7687 72.4832 29.6517 72.4832 28.0623C72.4832 26.4519 73.6905 25.3546 75.0938 25.3546C76.4971 25.3546 77.7098 26.4519 77.7098 28.0623C77.7098 29.6517 76.4971 30.7687 75.0938 30.7687V30.7687ZM64.9548 23.5959C62.3919 23.5959 60.308 25.4727 60.308 28.0623C60.308 30.6309 62.3919 32.5274 64.9548 32.5274C67.5165 32.5274 69.6017 30.6309 69.6017 28.0623C69.6017 25.4727 67.5165 23.5959 64.9548 23.5959ZM64.9548 30.7687C63.5502 30.7687 62.3388 29.6517 62.3388 28.0623C62.3388 26.4519 63.5502 25.3546 64.9548 25.3546C66.3582 25.3546 67.5655 26.4519 67.5655 28.0623C67.5655 29.6517 66.3582 30.7687 64.9548 30.7687ZM52.89 24.9648V26.8627H57.5899C57.4524 27.9232 57.0849 28.7028 56.5214 29.2462C55.8354 29.9024 54.7669 30.6309 52.89 30.6309C49.9976 30.6309 47.7327 28.3799 47.7327 25.5909C47.7327 22.8018 49.9976 20.5509 52.89 20.5509C54.4539 20.5509 55.5918 21.1402 56.4316 21.9041L57.8186 20.5666C56.6439 19.4851 55.0814 18.6543 52.89 18.6543C48.9237 18.6543 45.5903 21.7662 45.5903 25.5909C45.5903 29.4155 48.9237 32.5274 52.89 32.5274C55.0337 32.5274 56.6439 31.8502 57.9097 30.5797C59.2069 29.3289 59.6111 27.5701 59.6111 26.15C59.6111 25.709 59.573 25.3034 59.505 24.9648H52.89ZM102.225 26.4361C101.842 25.4373 100.662 23.5959 98.2585 23.5959C95.8766 23.5959 93.8934 25.4058 93.8934 28.0623C93.8934 30.5639 95.8561 32.5274 98.4872 32.5274C100.615 32.5274 101.842 31.2766 102.347 30.5482L100.768 29.5336C100.242 30.2765 99.5243 30.7687 98.4872 30.7687C97.4568 30.7687 96.7177 30.3132 96.2441 29.4155L102.438 26.944L102.225 26.4361V26.4361ZM95.9092 27.9232C95.8561 26.2012 97.2962 25.3192 98.3279 25.3192C99.1364 25.3192 99.8224 25.709 100.051 26.2668L95.9092 27.9232V27.9232ZM90.8745 32.2557H92.9107V19.1307H90.8745V32.2557ZM87.5398 24.5907H87.4717C87.0144 24.0684 86.1419 23.5959 85.0367 23.5959C82.7173 23.5959 80.5967 25.5594 80.5967 28.0767C80.5967 30.5797 82.7173 32.5274 85.0367 32.5274C86.1419 32.5274 87.0144 32.051 87.4717 31.5129H87.5398V32.1534C87.5398 33.8609 86.5938 34.7784 85.068 34.7784C83.8239 34.7784 83.0522 33.9121 82.7337 33.1837L80.9629 33.8964C81.4733 35.0802 82.8249 36.5371 85.068 36.5371C87.4554 36.5371 89.4698 35.1826 89.4698 31.8869V23.8676H87.5398V24.5907V24.5907ZM85.2109 30.7687C83.8076 30.7687 82.6329 29.636 82.6329 28.0767C82.6329 26.5031 83.8076 25.3546 85.2109 25.3546C86.5938 25.3546 87.684 26.5031 87.684 28.0767C87.684 29.636 86.5938 30.7687 85.2109 30.7687V30.7687ZM111.758 19.1307H106.888V32.2557H108.919V27.2827H111.758C114.013 27.2827 116.225 25.709 116.225 23.2061C116.225 20.7044 114.008 19.1307 111.758 19.1307V19.1307ZM111.811 25.457H108.919V20.9564H111.811C113.327 20.9564 114.193 22.1705 114.193 23.2061C114.193 24.2219 113.327 25.457 111.811 25.457ZM124.365 23.5709C122.897 23.5709 121.372 24.1957 120.744 25.5804L122.546 26.3088C122.934 25.5804 123.647 25.3441 124.401 25.3441C125.455 25.3441 126.523 25.9544 126.54 27.032V27.1698C126.172 26.9651 125.385 26.6619 124.418 26.6619C122.477 26.6619 120.499 27.6922 120.499 29.615C120.499 31.3737 122.089 32.5064 123.876 32.5064C125.243 32.5064 125.997 31.9119 126.47 31.2202H126.54V32.2347H128.501V27.2C128.501 24.8729 126.699 23.5709 124.365 23.5709ZM124.12 30.7634C123.455 30.7634 122.53 30.4458 122.53 29.6517C122.53 28.6359 123.684 28.246 124.683 28.246C125.577 28.246 125.997 28.4364 126.54 28.687C126.38 29.9024 125.296 30.7634 124.12 30.7634V30.7634ZM135.647 23.8584L133.313 29.548H133.243L130.83 23.8584H128.64L132.266 31.8095L130.197 36.2339H132.319L137.906 23.8584H135.647V23.8584ZM117.341 32.2557H119.377V19.1307H117.341V32.2557Z" fill="black"/>
</svg>