<svg width="35" height="35" viewBox="0 0 35 35" fill="none" xmlns="http://www.w3.org/2000/svg">
<g clip-path="url(#clip0_214_2745)">
<path d="M3.56114 10.8448L0.959469 14.4776C0.243164 15.4547 -0.090615 16.6602 0.0211549 17.8666C0.132925 19.0729 0.682508 20.1966 1.56614 21.0255L17.4999 35.0007L33.5328 20.9409C34.3923 20.087 34.9093 18.948 34.9865 17.739C35.0636 16.53 34.6954 15.3345 33.9513 14.3784L30.9749 10.8244C30.5137 10.1974 29.9121 9.68722 29.2182 9.33469C28.5242 8.98216 27.7574 8.79713 26.9791 8.79443H7.58322C6.7989 8.79641 6.02606 8.98307 5.3273 9.33929C4.62854 9.69552 4.02348 10.2113 3.56114 10.8448ZM4.50322 17.0442L7.10489 13.4173C7.15881 13.3406 7.23045 13.278 7.31372 13.2349C7.39698 13.1917 7.48943 13.1693 7.58322 13.1694H13.3991L11.6666 17.5007H23.3332L21.6007 13.1694H26.9791C27.0947 13.1774 27.2065 13.2138 27.3047 13.2754C27.4029 13.3369 27.4844 13.4218 27.542 13.5224L30.5111 17.0632C30.6025 17.1896 30.6431 17.3457 30.6249 17.5007H23.3332L17.4999 29.1761L11.6666 17.5007H4.40114C4.38574 17.4217 4.38686 17.3403 4.40442 17.2618C4.42199 17.1832 4.45563 17.1091 4.50322 17.0442Z" fill="#F4001C"/>
<path d="M19.6875 0H15.3125V5.83333H19.6875V0Z" fill="#F4001C"/>
<path d="M25.8636 0.439813L22.9473 5.02344L26.641 7.3736L29.5574 2.78997L25.8636 0.439813Z" fill="#F4001C"/>
<path d="M9.13809 0.449982L5.44629 2.80029L8.36283 7.38153L12.0546 5.03122L9.13809 0.449982Z" fill="#F4001C"/>
</g>
<defs>
<clipPath id="clip0_214_2745">
<rect width="35" height="35" fill="white"/>
</clipPath>
</defs>
</svg>