<svg width="35" height="35" viewBox="0 0 35 35" fill="none" xmlns="http://www.w3.org/2000/svg">
<g clip-path="url(#clip0_214_2751)">
<path d="M19.6875 5.83333H15.3125V0H19.6875V5.83333ZM19.6875 29.1667H15.3125V35H19.6875V29.1667ZM5.83333 15.3125H0V19.6875H5.83333V15.3125ZM35 15.3125H29.1667V19.6875H35V15.3125ZM33.7254 24.4008L28.6825 21.471L26.4833 25.2525L31.5263 28.1838L33.7254 24.4008ZM28.1838 3.46792L24.3965 1.26875L21.4667 6.31313L25.2481 8.51229L28.1838 3.46792ZM33.7415 10.5788L31.5394 6.79875L26.4965 9.73583L28.6985 13.5158L33.7415 10.5788ZM28.2188 31.519L25.2817 26.479L21.5017 28.681L24.4387 33.721L28.2188 31.519ZM8.54 25.2481L6.34229 21.471L1.29792 24.4008L3.5 28.1838L8.54 25.2481ZM13.5625 6.31313L10.6269 1.26875L6.84396 3.46792L9.77083 8.51229L13.5625 6.31313ZM8.52833 9.73583L3.48833 6.79875L1.28625 10.5788L6.32625 13.5158L8.52833 9.73583ZM13.5217 28.6825L9.74313 26.4775L6.80458 31.5175L10.5846 33.7225L13.5217 28.6825Z" fill="#F4001C"/>
</g>
<defs>
<clipPath id="clip0_214_2751">
<rect width="35" height="35" fill="white"/>
</clipPath>
</defs>
</svg>