<svg width="35" height="35" viewBox="0 0 35 35" fill="none" xmlns="http://www.w3.org/2000/svg">
<path d="M16.2748 17.0514L13.7081 14.387L10.5581 17.4189L13.7664 20.7541C14.0811 21.0873 14.4592 21.3544 14.8783 21.5397C15.2975 21.725 15.7495 21.8248 16.2077 21.8333H16.2616C17.1701 21.8307 18.0409 21.4702 18.6854 20.83L26.0077 13.5048L22.9131 10.4131L16.2748 17.0514Z" fill="#F4001C"/>
<path d="M17.3861 34.9992L16.6117 34.6536C16.0517 34.3998 2.9165 28.4367 2.9165 17.4992V8.05651C2.91659 7.13816 3.20565 6.24313 3.74274 5.49822C4.27984 4.75331 5.03771 4.19629 5.909 3.90609L17.4998 0.0429688L29.0921 3.90755C29.9636 4.19676 30.7218 4.75337 31.2587 5.49823C31.7957 6.24308 32.0842 7.13827 32.0832 8.05651V17.4992C32.0832 29.9519 18.7584 34.5355 18.1911 34.7251L17.3861 34.9992ZM17.4998 4.65422L7.2915 8.05651V17.4992C7.2915 24.3096 15.0848 28.9428 17.6121 30.264C20.1525 29.2038 27.7082 25.3859 27.7082 17.4992V8.05651L17.4998 4.65422Z" fill="#F4001C"/>
</svg>